HIERARCHY
ROOT Hips
{
	OFFSET -14.64140 90.27770 -84.91600
	CHANNELS 6 Xposition Yposition Zposition Zrotation Xrotation Yrotation
	JOINT Spine
	{
		OFFSET 0.00000 13.20850 -1.60436
		CHANNELS 3 Zrotation Xrotation Yrotation
		JOINT Spine1
		{
			OFFSET 0.00000 8.61716 0.00000
			CHANNELS 3 Zrotation Xrotation Yrotation
			JOINT Spine2
			{
				OFFSET 0.00000 8.61717 0.00000
				CHANNELS 3 Zrotation Xrotation Yrotation
				JOINT Spine3
				{
					OFFSET 0.00000 8.61717 0.00000
					CHANNELS 3 Zrotation Xrotation Yrotation
					JOINT Neck
					{
						OFFSET 0.00000 11.07920 1.10792
						CHANNELS 3 Zrotation Xrotation Yrotation
						JOINT Neck1
						{
							OFFSET 0.00000 7.08032 0.00000
							CHANNELS 3 Zrotation Xrotation Yrotation
							JOINT Head
							{
								OFFSET 0.00000 7.08031 0.00000
								CHANNELS 3 Zrotation Xrotation Yrotation
								End site
								{
									OFFSET 0.00000 0.00000 0.00000
								}
							}
						}
					}
					JOINT RightShoulder
					{
						OFFSET -0.01000 7.91373 5.19711
						CHANNELS 3 Zrotation Xrotation Yrotation
						JOINT RightArm
						{
							OFFSET -18.41580 0.00000 0.00000
							CHANNELS 3 Zrotation Xrotation Yrotation
							JOINT RightForeArm
							{
								OFFSET -29.11090 0.00000 0.00000
								CHANNELS 3 Zrotation Xrotation Yrotation
								JOINT RightHand
								{
									OFFSET -24.65040 0.00000 0.00000
									CHANNELS 3 Zrotation Xrotation Yrotation
									JOINT RightHandThumb1
									{
										OFFSET -5.35114 -0.85590 3.97906
										CHANNELS 3 Zrotation Xrotation Yrotation
										JOINT RightHandThumb2
										{
											OFFSET -4.52789 0.00000 0.00000
											CHANNELS 3 Zrotation Xrotation Yrotation
											JOINT RightHandThumb3
											{
												OFFSET -2.46976 0.00000 0.00000
												CHANNELS 3 Zrotation Xrotation Yrotation
												End site
												{
													OFFSET 0.00000 0.00000 0.00000
												}
											}
										}
									}
									JOINT RightHandIndex1
									{
										OFFSET -14.26970 0.00000 2.88139
										CHANNELS 3 Zrotation Xrotation Yrotation
										JOINT RightHandIndex2
										{
											OFFSET -5.48836 0.00000 0.00000
											CHANNELS 3 Zrotation Xrotation Yrotation
											JOINT RightHandIndex3
											{
												OFFSET -3.01859 0.00000 0.00000
												CHANNELS 3 Zrotation Xrotation Yrotation
												End site
												{
													OFFSET 0.00000 0.00000 0.00000
												}
											}
										}
									}
									JOINT RightHandMiddle1
									{
										OFFSET -14.26970 0.00000 -0.09147
										CHANNELS 3 Zrotation Xrotation Yrotation
										JOINT RightHandMiddle2
										{
											OFFSET -6.17441 0.00000 0.00000
											CHANNELS 3 Zrotation Xrotation Yrotation
											JOINT RightHandMiddle3
											{
												OFFSET -3.56743 0.00000 0.00000
												CHANNELS 3 Zrotation Xrotation Yrotation
												End site
												{
													OFFSET 0.00000 0.00000 0.00000
												}
											}
										}
									}
									JOINT RightHandRing1
									{
										OFFSET -12.69180 0.00000 -3.06433
										CHANNELS 3 Zrotation Xrotation Yrotation
										JOINT RightHandRing2
										{
											OFFSET -5.62556 0.00000 0.00000
											CHANNELS 3 Zrotation Xrotation Yrotation
											JOINT RightHandRing3
											{
												OFFSET -3.56744 0.00000 0.00000
												CHANNELS 3 Zrotation Xrotation Yrotation
												End site
												{
													OFFSET 0.00000 0.00000 0.00000
												}
											}
										}
									}
									JOINT RightHandPinky1
									{
										OFFSET -11.11390 0.00000 -6.03719
										CHANNELS 3 Zrotation Xrotation Yrotation
										JOINT RightHandPinky2
										{
											OFFSET -4.52789 0.00000 0.00000
											CHANNELS 3 Zrotation Xrotation Yrotation
											JOINT RightHandPinky3
											{
												OFFSET -2.46976 0.00000 0.00000
												CHANNELS 3 Zrotation Xrotation Yrotation
												End site
												{
													OFFSET 0.00000 0.00000 0.00000
												}
											}
										}
									}
								}
							}
						}
					}
					JOINT LeftShoulder
					{
						OFFSET 0.01000 7.91373 5.19711
						CHANNELS 3 Zrotation Xrotation Yrotation
						JOINT LeftArm
						{
							OFFSET 18.41580 0.00000 0.00000
							CHANNELS 3 Zrotation Xrotation Yrotation
							JOINT LeftForeArm
							{
								OFFSET 29.11090 0.00000 0.00000
								CHANNELS 3 Zrotation Xrotation Yrotation
								JOINT LeftHand
								{
									OFFSET 24.65040 0.00000 0.00000
									CHANNELS 3 Zrotation Xrotation Yrotation
									JOINT LeftHandThumb1
									{
										OFFSET 5.35114 -0.85590 3.97906
										CHANNELS 3 Zrotation Xrotation Yrotation
										JOINT LeftHandThumb2
										{
											OFFSET 4.52789 0.00000 0.00000
											CHANNELS 3 Zrotation Xrotation Yrotation
											JOINT LeftHandThumb3
											{
												OFFSET 2.46977 0.00000 0.00000
												CHANNELS 3 Zrotation Xrotation Yrotation
												End site
												{
													OFFSET 0.00000 0.00000 0.00000
												}
											}
										}
									}
									JOINT LeftHandIndex1
									{
										OFFSET 14.26970 0.00000 2.88139
										CHANNELS 3 Zrotation Xrotation Yrotation
										JOINT LeftHandIndex2
										{
											OFFSET 5.48836 0.00000 0.00000
											CHANNELS 3 Zrotation Xrotation Yrotation
											JOINT LeftHandIndex3
											{
												OFFSET 3.01859 0.00000 0.00000
												CHANNELS 3 Zrotation Xrotation Yrotation
												End site
												{
													OFFSET 0.00000 0.00000 0.00000
												}
											}
										}
									}
									JOINT LeftHandMiddle1
									{
										OFFSET 14.26970 0.00000 -0.09147
										CHANNELS 3 Zrotation Xrotation Yrotation
										JOINT LeftHandMiddle2
										{
											OFFSET 6.17440 0.00000 0.00000
											CHANNELS 3 Zrotation Xrotation Yrotation
											JOINT LeftHandMiddle3
											{
												OFFSET 3.56744 0.00000 0.00000
												CHANNELS 3 Zrotation Xrotation Yrotation
												End site
												{
													OFFSET 0.00000 0.00000 0.00000
												}
											}
										}
									}
									JOINT LeftHandRing1
									{
										OFFSET 12.69180 0.00000 -3.06433
										CHANNELS 3 Zrotation Xrotation Yrotation
										JOINT LeftHandRing2
										{
											OFFSET 5.62556 0.00000 0.00000
											CHANNELS 3 Zrotation Xrotation Yrotation
											JOINT LeftHandRing3
											{
												OFFSET 3.56744 0.00000 0.00000
												CHANNELS 3 Zrotation Xrotation Yrotation
												End site
												{
													OFFSET 0.00000 0.00000 0.00000
												}
											}
										}
									}
									JOINT LeftHandPinky1
									{
										OFFSET 11.11390 0.00000 -6.03719
										CHANNELS 3 Zrotation Xrotation Yrotation
										JOINT LeftHandPinky2
										{
											OFFSET 4.52789 0.00000 0.00000
											CHANNELS 3 Zrotation Xrotation Yrotation
											JOINT LeftHandPinky3
											{
												OFFSET 2.46976 0.00000 0.00000
												CHANNELS 3 Zrotation Xrotation Yrotation
												End site
												{
													OFFSET 0.00000 0.00000 0.00000
												}
											}
										}
									}
								}
							}
						}
					}
					JOINT pCube4
					{
						OFFSET 0.00000 10.91090 1.10792
						CHANNELS 3 Zrotation Xrotation Yrotation
						End site
						{
							OFFSET 0.00000 0.00000 0.00000
						}
					}
				}
			}
		}
	}
	JOINT RightUpLeg
	{
		OFFSET -9.98441 0.00000 0.00000
		CHANNELS 3 Zrotation Xrotation Yrotation
		JOINT RightLeg
		{
			OFFSET 0.00000 -42.11790 0.00000
			CHANNELS 3 Zrotation Xrotation Yrotation
			JOINT RightFoot
			{
				OFFSET 0.00000 -45.00020 -0.00001
				CHANNELS 3 Zrotation Xrotation Yrotation
				JOINT RightForeFoot
				{
					OFFSET 0.00000 -3.74820 0.00000
					CHANNELS 3 Zrotation Xrotation Yrotation
					JOINT RightToeBase
					{
						OFFSET 0.00000 0.06325 14.43120
						CHANNELS 3 Zrotation Xrotation Yrotation
						End site
						{
							OFFSET 0.00000 0.00000 0.00000
						}
					}
				}
			}
		}
	}
	JOINT LeftUpLeg
	{
		OFFSET 9.98441 0.00000 0.00000
		CHANNELS 3 Zrotation Xrotation Yrotation
		JOINT LeftLeg
		{
			OFFSET 0.00000 -42.11800 0.00000
			CHANNELS 3 Zrotation Xrotation Yrotation
			JOINT LeftFoot
			{
				OFFSET 0.00000 -45.00070 0.00000
				CHANNELS 3 Zrotation Xrotation Yrotation
				JOINT LeftForeFoot
				{
					OFFSET 0.00000 -3.74824 0.00000
					CHANNELS 3 Zrotation Xrotation Yrotation
					JOINT LeftToeBase
					{
						OFFSET 0.00000 0.06325 14.43110
						CHANNELS 3 Zrotation Xrotation Yrotation
						End site
						{
							OFFSET 0.00000 0.00000 0.00000
						}
					}
				}
			}
		}
	}
}
MOTION
Frames: 4
Frame Time: 0.050000
-0.008818746388087757 -0.03965290054851604 -0.012155119312689217 -0.02912184819442027 0.028848882390751826 0.04817247605847814 0.25232197225239056 3.6513989011489554 -1.3860821878612921 -1.0186476941450755 3.517549854491245 0.44936507757146466 -1.014666875099464 -1.0933897668944894 0.8654810558372763 -1.3733987833799741 -0.38697754378726473 -0.4434435713634088 -0.5233441975441842 11.549045864468198 1.2589379888721963 0.03823891762872848 -0.39208174398075496 1.4342643510949062 -0.17824650469900655 -15.715246825521229 0.1288932757768117 -9.008294688165412 3.389279738326813 -14.542048726667018 62.74009639887475 -19.622025298064067 27.55623670984801 20.261436491490745 -4.616094621316516 80.89880366148066 16.40722714724195 -0.5558804148902875 -4.6613008165705505 4.544656932286002 -0.16765008517961 -1.5839099364784472 -0.0160137512258798 0.025150794958216635 -56.245510495667645 -0.008743293488716872 -0.013046800067770793 -56.223966030559616 -38.79438654576808 0.04495522935738443 0.038690916005718654 0.009626353793217104 0.007865146223224522 0.017216795545660978 0.01442014725780369 -0.028537753591024215 0.02329214988409635 -36.709236687403454 0.004371051721124321 0.041215577946066735 0.04358541840098118 0.04193056503681668 -0.044997176585881773 0.02166845513113682 0.01139699693948403 0.03035915369011272 -19.721497830906465 0.0034847109015314036 0.04141627156536696 -0.0033506963912671535 -0.016522639611549237 -0.004524886489323714 -0.0053570740080815 0.009637324946367643 0.02158574079875596 24.05223469726079 0.014593983915902274 0.018291745187608996 28.846758490778488 -0.02622445634328844 0.048092721442938344 28.89978057123574 0.04635889053682944 0.030144070876845577 7.44858359124749 1.8632584155454488 13.133968491627629 -62.346483739770804 16.419533021280518 -18.29289957047203 7.965343379880475 -8.439745018629152 -50.56522063940789 -17.684827851925203 -0.6379544500683085 3.5155596243197684 -0.4981049347579521 0.07485376770212893 -8.083877852602264 -0.04061534853577463 -0.048072104983811835 44.6012614257046 0.011752004575417427 0.025048981228294808 44.59915181763129 12.45210300256574 0.002265884327657252 -0.011924554334702703 -0.00974395059734554 -0.02956838837839817 0.047803770460616575 -0.007336001106423083 -0.027653068218546666 0.03398272232325059 11.098776900406538 -0.004303252736977903 -0.030653051796604446 -0.0027923702079616936 -0.01671358278953068 0.0335187221011718 -0.020353135872692996 0.0005011012988122449 0.04985927797259489 4.76290604071515 -0.02429116974795475 0.008162268161135279 -0.019608341600609643 -0.011476832153365795 -0.015973836695257447 0.02123006525693418 0.016846918780459446 0.01923685910428789 -5.580953823967189 0.0033751736290786017 -0.009187922335461587 -6.729652226880133 -0.027642773743214825 0.005182238820239996 -6.733761391397128 0.004583091642956051 0.02803416204530519 0.013439493941653769 -0.032014987808785374 -0.01283764146201845 8.041924492824862 3.496818381194563 -19.26814803704764 0.02065528985780031 10.398754867098774 0.02985242735694656 -5.584437583203179 -15.652508768534581 3.201821217635419 -0.012977414389620237 -0.03043541782301151 -0.028784076292433187 0.03655970119869554 4.696247744043338 0.007751972712719875 12.4547963620834 -8.192311475874627 6.870801007277344 0.03290456521856504 46.41831712541108 -0.04377944861018165 -4.292981860972834 -14.703524540763835 -3.8435074599400454 -0.02253778590317163 -0.0034246298331992004 0.023120106013931167 -0.020686840743733 -10.754706798456144 -0.0071793459757639655 
0.025986809197536494 0.045537950927693006 -0.0332113354361722 -0.011340374578016997 0.006276918841325302 0.01767465215166129 0.4059875118500784 3.5435142691795227 -1.3687421904279768 -1.0269506087503095 3.5044043428989364 0.47725537618772595 -1.0667739297601693 -1.0361306424665626 0.8320732877675501 -1.1681128283857882 -0.3475781361493033 -0.4084416457902081 -0.2568556475819686 11.370649820052577 0.5821465762188561 0.09252672035318504 -0.5336140288410802 -0.15044118024871264 0.058772132617842775 -15.946993143542228 0.004391524046160778 -9.387224026137744 3.397258381648211 -14.936466686283195 63.31289497361702 -21.554709449111687 27.378113065255594 19.269866080809425 -4.0427306798265885 80.71257353604467 15.343447736491271 -0.48113198469105384 -4.324203001878538 4.528393928675821 -0.09999914354462126 -1.577187524109335 -0.01855923154996943 0.001556309854026913 -56.214955076650675 -0.045872228701254784 -0.01241049962863585 -56.218904090002574 -38.751656364881654 -0.006380792907962778 -0.010684294499487833 -0.0262885885742047 -0.020090346498153763 0.0036834274739232717 -0.04486435598393047 0.03964625386219852 0.03836856569862369 -36.6970709438831 0.04623461223868583 0.017391430414735898 -0.042797695419782844 0.03659595900678101 -0.04720487849163632 -0.027906613306071252 0.01813139323591819 0.004685368337151708 -19.738148532058812 -0.01904167609688751 0.010079091830642834 -0.02904196092705977 0.02858983807470088 0.03105943117163537 0.03182866768760572 0.0013437355597819005 0.02463252273406051 24.026071437905202 -0.0027025658170627717 0.037350513450503275 28.856860368075225 -0.01309786208284895 -0.03378770433652701 28.854578224425136 -0.045265486199473244 -0.012680899863404631 7.122518952116228 1.8583585483444978 13.104934267169341 -62.81752205144606 16.914567055320003 -17.268416640018668 6.815918117400862 -7.6090672981287195 -50.453261641603014 -17.259807065853657 -1.1447453385146755 3.7463976432347454 -0.5154395576389083 0.07698481225260433 -8.119018642929317 -0.0073950269165034615 -0.030369106710542142 44.56227758246225 -0.048341329811239175 0.04615766278110608 44.58430812993086 12.49794606551731 0.013355206150385565 -0.020526557044094885 -0.0351010625583731 0.046891066132699125 -0.04568831514207128 -0.014969684235151189 -0.017520240143132776 -0.03211252607245815 11.074135154501642 0.004579760306611962 -0.012137705163745514 0.01364741835915978 -0.007099078503019688 -0.011669755839424145 0.024985325600223984 0.027546655920541247 0.030376017444898956 4.752085307835544 0.03580947423094461 0.012965486825408535 0.04865246845586846 0.014097355021215584 -0.009381378517235825 -0.046532695860164314 -0.007036924539786211 0.019177143973289137 -5.631971164050825 -0.023365623419116632 0.012683972083669292 -6.721699444718594 0.04605974688263287 -0.015231188867591445 -6.726386704056397 0.033188750150273436 0.017251238473321186 -0.04627029292904226 0.017174785982570006 0.030931306760880913 8.054201778796784 3.514488341435131 -19.191158704401186 -0.038066869410511385 10.419984192198859 0.012967869363125759 -5.670194690175412 -15.652968188967382 3.2067216034769124 0.048564140761334175 -0.02403692956675226 0.03792866040047646 0.004386256861970915 4.739938522291913 -0.04650995024225662 12.485592539201015 -8.22477878648075 6.901249426024571 0.046895932461340606 46.337085179592904 -0.02122537157847138 -4.363706958258587 -14.728482962161609 -3.874575895439087 -0.04471074287306048 -0.04602094954407082 0.025812297387213086 0.04511188191581999 -10.723229867789442 -0.02324440827721642 
0.008804040907482347 0.03910556895299854 -0.018097276413364834 -0.031095391975769028 -0.036221191441784636 -0.006973107897932602 0.5459141312113684 3.687516024880478 -1.5013638130148657 -1.0245215087254105 3.520973636436335 0.4830212119782647 -1.038491274602386 -0.8789514768302072 0.5513640033288892 -0.9766600099154368 -0.36791507176123367 -0.48695709198769704 -0.15958958952892094 11.122722343835974 0.09330780439324851 0.04289313426927989 -0.6925619649958902 -1.047369343765474 0.24456100979640927 -16.240578703370335 -0.11437553515850304 -9.137691809035994 3.3291045526570393 -15.293054196262881 64.41130500481567 -22.359144936582215 25.161262925683108 19.506033174506 -3.082492068118716 80.11723432778496 14.526828525554002 -0.48960088525568396 -4.158416695230198 4.568266503925825 -0.08746884816902992 -1.568406859460108 0.045785642341575165 -0.03938955705218912 -56.20258617514461 -0.03523561040476268 -0.03773980864091762 -56.20109217610367 -38.74339706662305 -0.039661347480193336 0.0035631919144152075 -0.002474121348570979 -0.010589383157037936 -0.047667471430875595 0.0176915401095942 0.015234876257522095 -0.030913060099632142 -36.68386117520039 0.005358578648488274 -0.015709899835653584 -0.008410561154605282 0.021317911852594004 -0.03344456678082467 -0.01116437625521447 -0.011701557180258398 -0.02776203239033893 -19.78083151904665 -0.0377348428211806 -0.02689168097597106 0.01841029525731575 -0.028643594937625153 -0.0011226953358131472 -0.0002631808583453977 0.00013090119168003198 0.024669360302716013 24.078040369616193 -0.0010265809067298742 0.01706314515547155 28.88298576957232 0.02359860319108525 0.008701267487126171 28.827174031927576 0.0048096431681618 -0.019528588695574767 6.739470507371734 1.8050690979642052 12.97757160512492 -63.41307798923484 17.71580521918942 -16.30791961110367 5.457477523081899 -6.496372068578082 -51.01359853349102 -16.763954207501797 -1.6459801298416339 4.00702955157156 -0.4868088940942845 0.10321082324944306 -8.08238729445621 0.04018605256912745 -0.0049310142542179115 44.53099947086176 -0.007276972512957908 0.048622102503517325 44.561643383443176 12.482278119439464 -0.001724366444311375 0.002988788242429373 -0.011470430482997437 -0.018854152050795214 0.02656930382803596 0.010892321985239305 -0.042556780550940976 0.025965118703887027 11.086189562405089 0.02846012734168337 0.008764100765217987 0.038495947890906365 0.011238564904684018 0.021953154389171586 -0.0017089771302610732 0.003655937840433007 -0.01906777506625149 4.777375662749827 -0.023862342408765728 -0.03818109916596572 -0.025032223884327773 0.01613709327536282 0.029189856379907484 -0.03893213378194959 0.0035507048305437636 0.03646675236414316 -5.555969837407103 -0.015243351441085655 0.00812667694719749 -6.73074204769447 0.04836854630707918 -0.04893139619697991 -6.724190864075882 -0.0061704128643796565 0.02841947284318605 -0.024301308886341952 -0.003375282701982617 -0.038593279362765964 8.065097695894488 3.5083855585910353 -19.231327539948573 -0.0474135320925958 10.438518761004419 0.05245123471525333 -5.62949719819045 -15.676152799207758 3.241407966135734 0.0078071789117098705 0.026551700508343004 -0.014246959518858906 0.04549677319049684 4.718862518461532 0.012570597683845523 12.419012438634844 -8.21442790593614 6.90963097731663 -0.02678303594977332 46.388442027731344 0.027196705061180076 -4.320854473896419 -14.735129557631598 -3.808058615496966 -0.002418984814399883 0.035446271370562846 0.013256380364576867 -0.019993875657858293 -10.759571892839938 -0.023433523223561445 
-0.02776878792113869 -0.04006715323012826 0.009805658216503343 0.03898170715657744 0.046712854551200805 -0.01015252570686633 0.5758926615424743 4.138228818972899 -1.4828727476600696 -1.0635732047423505 3.5593584193133982 0.435686448680219 -1.0430450325141123 -0.732882724598502 0.2889437660570407 -0.7043871389658652 -0.30052476080886914 -0.527404148120089 -0.07246426611488652 10.85928675226028 -0.27397197272101026 0.018963959608382437 -0.9035007044354038 -1.630405966895922 0.32258979608424665 -16.689221882810898 -0.09879762150921292 -8.627632912791956 3.1549506442306336 -15.575728966140717 65.58930394876408 -22.739721200895698 22.04969879454468 20.38119009941361 -2.1760697013968775 78.84023154441583 13.856929222741037 -0.431703901441139 -3.990062344446663 4.515280561167821 -0.12346459909236102 -1.5621404020921665 0.025609456601368447 -0.027383098009772323 -56.21544466683053 0.008544174450809855 0.023571807801383102 -56.25489165357466 -38.77393895845926 -0.02849245257449906 0.01810899625753132 -0.03334410402540942 -0.045025997208828224 0.006338274944358706 -0.03917673812739648 -0.014318406111343985 -0.04810999352854616 -36.70101756920002 0.014610443894896656 -0.012781904627450161 -0.009207135411664683 0.016830437376192563 0.03113958625737872 -0.006521697181435726 0.00915100079816983 0.022378313792900114 -19.796978523303913 -0.03726022747060589 -0.0035052049477338402 0.03420639967319627 0.017337033326199864 0.047806458801140296 -0.0009245875152728216 0.002620916665393222 0.003270809064056493 24.054524985241063 0.005175404856650072 -0.015685504118703217 28.832681299305015 -0.02260986169022338 0.013915353236220203 28.859968137910602 0.028688227638104698 0.00399241098374416 6.263181376262303 1.6986273389252535 12.919867969569735 -63.82635922667281 18.77833588748016 -15.493006684973974 3.6196223159754735 -5.179361885472378 -52.438981009579145 -15.978986385037823 -2.104283372764116 4.050918507705596 -0.47600756206777384 0.060140254854505956 -8.152148555770326 0.024536895528526906 -0.010974181030153247 44.59989764206816 0.0013960389912621915 0.04529668445033055 44.577745889583085 12.4799845609976 0.023029062290863947 -0.016380091955848677 0.0038471697869509325 -7.481773539256867e-05 -0.01580940589042049 0.007014481804311992 0.03700468134012441 0.03059756748327067 11.082944300283652 0.006863820640241171 0.030228675258357905 -0.03781174198921776 0.040537865263158 -0.021010128910580954 0.015075080197585675 0.037283830268473796 -0.01648489048575538 4.814666104191587 0.037920209029856274 -0.021361153349513218 0.01030443873721 0.02577083477713789 -0.019599217816844892 -0.02266865863512835 -0.04223105884885061 0.04421990517529505 -5.58224235871823 0.009360316318758114 -0.03272975255069057 -6.764702492526744 -0.020419240855565936 -0.031269584402080705 -6.686755831489942 -0.013053309100939287 -0.015989395834619335 -0.0031086090724670784 0.04019314488519722 0.01063341487736491 8.004366332616351 3.488099049771594 -19.206622676157213 -0.001639579959259601 10.377605787643096 -0.008289586388372416 -5.602717779066936 -15.665183206921224 3.1838201043393277 -0.042270286196925015 -0.007011836324172612 0.014730449997524547 -0.023376315982669586 4.657513326217735 0.006577493789710812 12.436703570884603 -8.224300720400738 6.929190841232679 -0.02985005224395986 46.42193585723914 0.03848297352733481 -4.367055364026652 -14.764883257344353 -3.810034058549052 -0.019018361087162244 0.006910404491983661 -0.021268703085955378 -0.033278887690694516 -10.774363626022835 0.04736497770376985 
